<?xml version="1.0" encoding="UTF-8"?>
<svg id="Layer_1" data-name="Layer 1" xmlns="http://www.w3.org/2000/svg" viewBox="100 100 1525 375">
  <defs>
    <style>
      .cls-1 {
        fill: #00c573;
      }
    </style>
  </defs>
  <g>
    <g>
      <circle class="cls-1" cx="105" cy="470" r="5"/>
      <circle class="cls-1" cx="105" cy="455" r="5"/>
      <circle class="cls-1" cx="120" cy="440" r="5"/>
      <circle class="cls-1" cx="120" cy="425" r="5"/>
      <circle class="cls-1" cx="135" cy="440" r="5"/>
      <circle class="cls-1" cx="135" cy="410" r="5"/>
      <circle class="cls-1" cx="150" cy="440" r="5"/>
      <circle class="cls-1" cx="150" cy="395" r="5"/>
      <circle class="cls-1" cx="165" cy="440" r="5"/>
      <circle class="cls-1" cx="165" cy="380" r="5"/>
      <circle class="cls-1" cx="180" cy="440" r="5"/>
      <circle class="cls-1" cx="180" cy="395" r="5"/>
      <circle class="cls-1" cx="195" cy="440" r="5"/>
      <circle class="cls-1" cx="195" cy="410" r="5"/>
      <circle class="cls-1" cx="210" cy="440" r="5"/>
      <circle class="cls-1" cx="210" cy="425" r="5"/>
      <circle class="cls-1" cx="225" cy="470" r="5"/>
      <circle class="cls-1" cx="225" cy="455" r="5"/>
    </g>
    <g>
      <circle class="cls-1" cx="690" cy="470" r="5"/>
      <circle class="cls-1" cx="690" cy="455" r="5"/>
      <circle class="cls-1" cx="705" cy="440" r="5"/>
      <circle class="cls-1" cx="705" cy="425" r="5"/>
      <circle class="cls-1" cx="720" cy="440" r="5"/>
      <circle class="cls-1" cx="720" cy="410" r="5"/>
      <circle class="cls-1" cx="735" cy="440" r="5"/>
      <circle class="cls-1" cx="735" cy="395" r="5"/>
      <circle class="cls-1" cx="750" cy="440" r="5"/>
      <circle class="cls-1" cx="750" cy="380" r="5"/>
      <circle class="cls-1" cx="765" cy="440" r="5"/>
      <circle class="cls-1" cx="765" cy="395" r="5"/>
      <circle class="cls-1" cx="780" cy="440" r="5"/>
      <circle class="cls-1" cx="780" cy="410" r="5"/>
      <circle class="cls-1" cx="795" cy="440" r="5"/>
      <circle class="cls-1" cx="795" cy="425" r="5"/>
      <circle class="cls-1" cx="810" cy="470" r="5"/>
      <circle class="cls-1" cx="810" cy="455" r="5"/>
    </g>
    <g>
      <circle class="cls-1" cx="1500" cy="470" r="5"/>
      <circle class="cls-1" cx="1500" cy="455" r="5"/>
      <circle class="cls-1" cx="1500" cy="440" r="5"/>
      <circle class="cls-1" cx="1500" cy="425" r="5"/>
      <circle class="cls-1" cx="1500" cy="410" r="5"/>
      <circle class="cls-1" cx="1500" cy="395" r="5"/>
      <circle class="cls-1" cx="1500" cy="380" r="5"/>
      <circle class="cls-1" cx="1515" cy="380" r="5"/>
      <circle class="cls-1" cx="1530" cy="395" r="5"/>
      <circle class="cls-1" cx="1545" cy="410" r="5"/>
      <circle class="cls-1" cx="1560" cy="425" r="5"/>
      <circle class="cls-1" cx="1575" cy="440" r="5"/>
      <circle class="cls-1" cx="1590" cy="455" r="5"/>
      <circle class="cls-1" cx="1605" cy="470" r="5"/>
      <circle class="cls-1" cx="1620" cy="470" r="5"/>
      <circle class="cls-1" cx="1620" cy="455" r="5"/>
      <circle class="cls-1" cx="1620" cy="440" r="5"/>
      <circle class="cls-1" cx="1620" cy="425" r="5"/>
      <circle class="cls-1" cx="1620" cy="410" r="5"/>
      <circle class="cls-1" cx="1620" cy="395" r="5"/>
      <circle class="cls-1" cx="1620" cy="380" r="5"/>
    </g>
    <g>
      <circle class="cls-1" cx="1260" cy="455" r="5"/>
      <circle class="cls-1" cx="1260" cy="440" r="5"/>
      <circle class="cls-1" cx="1260" cy="425" r="5"/>
      <circle class="cls-1" cx="1260" cy="410" r="5"/>
      <circle class="cls-1" cx="1260" cy="395" r="5"/>
      <circle class="cls-1" cx="1275" cy="470" r="5"/>
      <circle class="cls-1" cx="1275" cy="380" r="5"/>
      <circle class="cls-1" cx="1290" cy="470" r="5"/>
      <circle class="cls-1" cx="1290" cy="380" r="5"/>
      <circle class="cls-1" cx="1305" cy="470" r="5"/>
      <circle class="cls-1" cx="1305" cy="380" r="5"/>
      <circle class="cls-1" cx="1320" cy="470" r="5"/>
      <circle class="cls-1" cx="1320" cy="380" r="5"/>
      <circle class="cls-1" cx="1335" cy="470" r="5"/>
      <circle class="cls-1" cx="1335" cy="380" r="5"/>
      <circle class="cls-1" cx="1350" cy="470" r="5"/>
      <circle class="cls-1" cx="1350" cy="380" r="5"/>
      <circle class="cls-1" cx="1365" cy="470" r="5"/>
      <circle class="cls-1" cx="1365" cy="380" r="5"/>
      <circle class="cls-1" cx="1380" cy="455" r="5"/>
      <circle class="cls-1" cx="1380" cy="440" r="5"/>
      <circle class="cls-1" cx="1380" cy="425" r="5"/>
      <circle class="cls-1" cx="1380" cy="410" r="5"/>
      <circle class="cls-1" cx="1380" cy="395" r="5"/>
    </g>
    <g>
      <circle class="cls-1" cx="900" cy="380" r="5"/>
      <circle class="cls-1" cx="915" cy="380" r="5"/>
      <circle class="cls-1" cx="930" cy="380" r="5"/>
      <circle class="cls-1" cx="945" cy="380" r="5"/>
      <circle class="cls-1" cx="960" cy="470" r="5"/>
      <circle class="cls-1" cx="960" cy="455" r="5"/>
      <circle class="cls-1" cx="960" cy="440" r="5"/>
      <circle class="cls-1" cx="960" cy="425" r="5"/>
      <circle class="cls-1" cx="960" cy="410" r="5"/>
      <circle class="cls-1" cx="960" cy="395" r="5"/>
      <circle class="cls-1" cx="960" cy="380" r="5"/>
      <circle class="cls-1" cx="975" cy="380" r="5"/>
      <circle class="cls-1" cx="990" cy="380" r="5"/>
      <circle class="cls-1" cx="1005" cy="380" r="5"/>
      <circle class="cls-1" cx="1020" cy="380" r="5"/>
    </g>
    <g>
      <circle class="cls-1" cx="330" cy="395" r="5"/>
      <circle class="cls-1" cx="330" cy="380" r="5"/>
      <circle class="cls-1" cx="330" cy="410" r="5"/>
      <circle class="cls-1" cx="360" cy="440" r="5"/>
      <circle class="cls-1" cx="345" cy="425" r="5"/>
      <circle class="cls-1" cx="375" cy="455" r="5"/>
      <circle class="cls-1" cx="390" cy="470" r="5"/>
      <circle class="cls-1" cx="405" cy="455" r="5"/>
      <circle class="cls-1" cx="420" cy="440" r="5"/>
      <circle class="cls-1" cx="435" cy="425" r="5"/>
      <circle class="cls-1" cx="450" cy="410" r="5"/>
      <circle class="cls-1" cx="450" cy="395" r="5"/>
      <circle class="cls-1" cx="450" cy="380" r="5"/>
    </g>
    <g>
      <circle class="cls-1" cx="570" cy="470" r="5"/>
      <circle class="cls-1" cx="570" cy="455" r="5"/>
      <circle class="cls-1" cx="570" cy="440" r="5"/>
      <circle class="cls-1" cx="570" cy="425" r="5"/>
      <circle class="cls-1" cx="570" cy="410" r="5"/>
      <circle class="cls-1" cx="570" cy="395" r="5"/>
      <circle class="cls-1" cx="570" cy="380" r="5"/>
    </g>
    <g>
      <circle class="cls-1" cx="1140" cy="470" r="5"/>
      <circle class="cls-1" cx="1140" cy="455" r="5"/>
      <circle class="cls-1" cx="1140" cy="440" r="5"/>
      <circle class="cls-1" cx="1140" cy="425" r="5"/>
      <circle class="cls-1" cx="1140" cy="410" r="5"/>
      <circle class="cls-1" cx="1140" cy="395" r="5"/>
      <circle class="cls-1" cx="1140" cy="380" r="5"/>
    </g>
  </g>
  <g>
    <path class="cls-1" d="M100,100h71.67l150.22,166.42-.9-166.42h44.08v200h-71.96l-149.33-165.52.9,165.52h-44.68V100Z"/>
    <path class="cls-1" d="M664.98,100v125.94c0,38.08-6,53.67-25.19,64.47-17.09,9.89-34.18,11.69-104.95,11.69s-90.25-4.2-104.95-20.69c-10.19-11.69-13.19-25.49-13.19-62.37v-119.04h46.18v104.65q0,26.69,1.5,35.08c3.3,21.29,14.99,25.19,74.96,25.19,26.99,0,51.88-1.2,58.77-3,11.69-3,17.99-10.19,19.79-22.79q.6-3.6.9-31.48v-107.65h46.18Z"/>
    <path class="cls-1" d="M716.32,100h71.37l94.15,150.53,93.85-150.53h70.46v200h-45.28l1.8-164.62-103.45,164.62h-36.28l-102.85-164.62,1.2,164.62h-44.98V100Z"/>
    <path class="cls-1" d="M1099.3,100h212.59v35.08h-167.02v47.38h158.92v31.48h-158.92v50.97h168.82v35.08h-214.39V100Z"/>
    <path class="cls-1" d="M1359.93,100h71.66l150.23,166.42-.9-166.42h44.08v200h-71.96l-149.33-165.52.9,165.52h-44.68V100Z"/>
  </g>
</svg>