<?xml version="1.0" encoding="UTF-8"?>
<svg id="Layer_1" data-name="Layer 1" xmlns="http://www.w3.org/2000/svg" viewBox="0 0 1725 402.1">
  <defs>
    <style>
      .cls-1 {
        fill: #fafafa;
      }
    </style>
  </defs>
  <path class="cls-1" d="M100,100h71.67l150.22,166.42-.9-166.42h44.08v200h-71.96l-149.33-165.52.9,165.52h-44.68V100Z"/>
  <path class="cls-1" d="M664.98,100v125.94c0,38.08-6,53.67-25.19,64.47-17.09,9.89-34.18,11.69-104.95,11.69s-90.25-4.2-104.95-20.69c-10.19-11.69-13.19-25.49-13.19-62.37v-119.04h46.18v104.65q0,26.69,1.5,35.08c3.3,21.29,14.99,25.19,74.96,25.19,26.99,0,51.88-1.2,58.77-3,11.69-3,17.99-10.19,19.79-22.79q.6-3.6.9-31.48v-107.65h46.18Z"/>
  <path class="cls-1" d="M716.32,100h71.37l94.15,150.53,93.85-150.53h70.46v200h-45.28l1.8-164.62-103.45,164.62h-36.28l-102.85-164.62,1.2,164.62h-44.98V100Z"/>
  <path class="cls-1" d="M1099.3,100h212.59v35.08h-167.02v47.38h158.92v31.48h-158.92v50.97h168.82v35.08h-214.39V100Z"/>
  <path class="cls-1" d="M1359.93,100h71.66l150.23,166.42-.9-166.42h44.08v200h-71.96l-149.33-165.52.9,165.52h-44.68V100Z"/>
</svg>